{
	"accessors" : 
	[
		{
			"bufferView" : 2,
			"byteOffset" : 0,
			"componentType" : 5126,
			"count" : 216,
			"max" : 
			[
				1,
				1,
				1,
				1
			],
			"min" : 
			[
				0.006584956776350737,
				0.006584956776350737,
				0.006584956776350737,
				1
			],
			"name" : "accessor_color_m0-PolyPaper23_-22648",
			"type" : "VEC4"
		},
		{
			"bufferView" : 2,
			"byteOffset" : 3456,
			"componentType" : 5126,
			"count" : 20,
			"max" : 
			[
				1,
				1,
				1,
				0
			],
			"min" : 
			[
				1,
				1,
				1,
				0
			],
			"name" : "accessor_color_m1-PolyGlass24_-22650",
			"type" : "VEC4"
		},
		{
			"bufferView" : 2,
			"byteOffset" : 3776,
			"componentType" : 5126,
			"count" : 4,
			"max" : 
			[
				1,
				1,
				1,
				1
			],
			"min" : 
			[
				1,
				1,
				1,
				1
			],
			"name" : "accessor_color_m2-PolyGem25_-22652",
			"type" : "VEC4"
		},
		{
			"bufferView" : 0,
			"byteOffset" : 0,
			"componentType" : 5123,
			"count" : 366,
			"max" : 
			[
				215
			],
			"min" : 
			[
				0
			],
			"name" : "accessor_indices_0_m0-PolyPaper23_-22648",
			"type" : "SCALAR"
		},
		{
			"bufferView" : 0,
			"byteOffset" : 732,
			"componentType" : 5123,
			"count" : 30,
			"max" : 
			[
				19
			],
			"min" : 
			[
				0
			],
			"name" : "accessor_indices_0_m1-PolyGlass24_-22650",
			"type" : "SCALAR"
		},
		{
			"bufferView" : 0,
			"byteOffset" : 792,
			"componentType" : 5123,
			"count" : 6,
			"max" : 
			[
				3
			],
			"min" : 
			[
				0
			],
			"name" : "accessor_indices_0_m2-PolyGem25_-22652",
			"type" : "SCALAR"
		},
		{
			"bufferView" : 1,
			"byteOffset" : 2592,
			"componentType" : 5126,
			"count" : 216,
			"max" : 
			[
				1,
				1,
				1
			],
			"min" : 
			[
				-1,
				-1,
				-1
			],
			"name" : "accessor_normal_m0-PolyPaper23_-22648",
			"type" : "VEC3"
		},
		{
			"bufferView" : 1,
			"byteOffset" : 5424,
			"componentType" : 5126,
			"count" : 20,
			"max" : 
			[
				0.9999997,
				0.9999995,
				0.0006666442000000001
			],
			"min" : 
			[
				-0.9999997,
				-0.9999995,
				-0.9999998
			],
			"name" : "accessor_normal_m1-PolyGlass24_-22650",
			"type" : "VEC3"
		},
		{
			"bufferView" : 1,
			"byteOffset" : 5712,
			"componentType" : 5126,
			"count" : 4,
			"max" : 
			[
				-0.0001882973,
				0.0006658661,
				0.9999998
			],
			"min" : 
			[
				-0.0001884785,
				0.0006657596999999999,
				0.9999996
			],
			"name" : "accessor_normal_m2-PolyGem25_-22652",
			"type" : "VEC3"
		},
		{
			"bufferView" : 1,
			"byteOffset" : 0,
			"componentType" : 5126,
			"count" : 216,
			"max" : 
			[
				0.490027,
				1.720005,
				0.2899937
			],
			"min" : 
			[
				-0.04997296,
				0.8300048,
				0.2599931
			],
			"name" : "accessor_position_m0-PolyPaper23_-22648",
			"type" : "VEC3"
		},
		{
			"bufferView" : 1,
			"byteOffset" : 5184,
			"componentType" : 5126,
			"count" : 20,
			"max" : 
			[
				0.4705739,
				1.702133,
				0.2830681
			],
			"min" : 
			[
				-0.02396402,
				0.8621331,
				0.2626607
			],
			"name" : "accessor_position_m1-PolyGlass24_-22650",
			"type" : "VEC3"
		},
		{
			"bufferView" : 1,
			"byteOffset" : 5664,
			"componentType" : 5126,
			"count" : 4,
			"max" : 
			[
				0.4705701,
				1.702133,
				0.2830681
			],
			"min" : 
			[
				-0.02396402,
				0.8621463,
				0.2824159
			],
			"name" : "accessor_position_m2-PolyGem25_-22652",
			"type" : "VEC3"
		}
	],
	"asset" : 
	{
		"copyright" : "Unknown",
		"generator" : "glTF 1-to-2 Upgrader for Google Blocks",
		"version" : "2.0"
	},
	"bufferViews" : 
	[
		{
			"buffer" : 0,
			"byteLength" : 804,
			"byteOffset" : 0,
			"name" : "ushortBufferView",
			"target" : 34963
		},
		{
			"buffer" : 0,
			"byteLength" : 5760,
			"byteOffset" : 804,
			"byteStride" : 12,
			"name" : "vec3BufferView",
			"target" : 34962
		},
		{
			"buffer" : 0,
			"byteLength" : 3840,
			"byteOffset" : 6564,
			"byteStride" : 16,
			"name" : "vec4BufferView",
			"target" : 34962
		}
	],
	"buffers" : 
	[
		{
			"byteLength" : 10404,
			"name" : "model",
			"uri" : "model.bin"
		}
	],
	"materials" : 
	[
		{
			"alphaMode" : "OPAQUE",
			"doubleSided" : false,
			"name" : "BlocksPaper",
			"pbrMetallicRoughness" : 
			{
				"baseColorFactor" : 
				[
					1,
					1,
					1,
					1
				],
				"metallicFactor" : 0,
				"roughnessFactor" : 0.6
			}
		},
		{
			"alphaMode" : "BLEND",
			"doubleSided" : false,
			"name" : "BlocksGlass",
			"pbrMetallicRoughness" : 
			{
				"baseColorFactor" : 
				[
					0.2,
					0.2,
					1,
					0.3
				],
				"metallicFactor" : 1,
				"roughnessFactor" : 0.4
			}
		},
		{
			"alphaMode" : "OPAQUE",
			"doubleSided" : true,
			"name" : "BlocksGem",
			"pbrMetallicRoughness" : 
			{
				"baseColorFactor" : 
				[
					1,
					0.4,
					1,
					1
				],
				"metallicFactor" : 0,
				"roughnessFactor" : 0.1
			}
		}
	],
	"meshes" : 
	[
		{
			"name" : "mesh_m0-PolyPaper23_-22648",
			"primitives" : 
			[
				{
					"attributes" : 
					{
						"COLOR_0" : 0,
						"NORMAL" : 6,
						"POSITION" : 9
					},
					"indices" : 3,
					"material" : 0,
					"mode" : 4
				}
			]
		},
		{
			"name" : "mesh_m1-PolyGlass24_-22650",
			"primitives" : 
			[
				{
					"attributes" : 
					{
						"COLOR_0" : 1,
						"NORMAL" : 7,
						"POSITION" : 10
					},
					"indices" : 4,
					"material" : 1,
					"mode" : 4
				}
			]
		},
		{
			"name" : "mesh_m2-PolyGem25_-22652",
			"primitives" : 
			[
				{
					"attributes" : 
					{
						"COLOR_0" : 2,
						"NORMAL" : 8,
						"POSITION" : 11
					},
					"indices" : 5,
					"material" : 2,
					"mode" : 4
				}
			]
		}
	],
	"nodes" : 
	[
		{
			"matrix" : 
			[
				1,
				0,
				0,
				0,
				0,
				1,
				0,
				0,
				0,
				0,
				1,
				0,
				0,
				0,
				0,
				1
			],
			"mesh" : 1,
			"name" : "node_MeshObject-1287276608-PolyGlass24"
		},
		{
			"matrix" : 
			[
				1,
				0,
				0,
				0,
				0,
				1,
				0,
				0,
				0,
				0,
				1,
				0,
				0,
				0,
				0,
				1
			],
			"mesh" : 2,
			"name" : "node_MeshObject-768556544-PolyGem25"
		},
		{
			"matrix" : 
			[
				1,
				0,
				0,
				0,
				0,
				1,
				0,
				0,
				0,
				0,
				1,
				0,
				0,
				0,
				0,
				1
			],
			"mesh" : 0,
			"name" : "node_MeshObject174253568-PolyPaper23"
		}
	],
	"scene" : 0,
	"scenes" : 
	[
		{
			"extras" : {},
			"name" : "defaultScene",
			"nodes" : 
			[
				2,
				0,
				1
			]
		}
	]
}