{
  "accessors": [
    {
      "bufferView": 0,
      "byteOffset": 0,
      "componentType": 5123,
      "count": 936,
      "max": [
        623.0
      ],
      "min": [
        0.0
      ],
      "name": "buffer-0-group-0-mesh-0-indices",
      "type": "SCALAR"
    },
    {
      "bufferView": 1,
      "byteOffset": 0,
      "componentType": 5126,
      "count": 624,
      "max": [
        480.0,
        1476.760009765625,
        -0.0
      ],
      "min": [
        0.0,
        0.0,
        -1000.0
      ],
      "name": "buffer-0-group-0-mesh-0-position",
      "type": "VEC3"
    },
    {
      "bufferView": 1,
      "byteOffset": 7488,
      "componentType": 5126,
      "count": 624,
      "max": [
        1.0,
        1.0,
        1.0
      ],
      "min": [
        -1.0,
        -1.0,
        -1.0
      ],
      "name": "buffer-0-group-0-mesh-0-normal",
      "type": "VEC3"
    },
    {
      "bufferView": 2,
      "byteOffset": 0,
      "componentType": 5126,
      "count": 624,
      "max": [
        2.187230110168457,
        0.15225300192832947
      ],
      "min": [
        -2.187230110168457,
        -3.4170401096343994
      ],
      "name": "buffer-0-group-0-mesh-0-texcoord",
      "type": "VEC2"
    },
    {
      "bufferView": 0,
      "byteOffset": 1872,
      "componentType": 5123,
      "count": 720,
      "max": [
        287.0
      ],
      "min": [
        0.0
      ],
      "name": "buffer-0-group-1-mesh-0-indices",
      "type": "SCALAR"
    },
    {
      "bufferView": 1,
      "byteOffset": 14976,
      "componentType": 5126,
      "count": 288,
      "max": [
        483.0,
        1508.4000244140625,
        -177.77499389648438
      ],
      "min": [
        480.0,
        227.0330047607422,
        -819.7890014648438
      ],
      "name": "buffer-0-group-1-mesh-0-position",
      "type": "VEC3"
    },
    {
      "bufferView": 1,
      "byteOffset": 18432,
      "componentType": 5126,
      "count": 288,
      "max": [
        1.0,
        1.0,
        1.0
      ],
      "min": [
        -1.0,
        -1.0,
        -1.0
      ],
      "name": "buffer-0-group-1-mesh-0-normal",
      "type": "VEC3"
    },
    {
      "bufferView": 2,
      "byteOffset": 4992,
      "componentType": 5126,
      "count": 288,
      "max": [
        3.2200000286102295,
        -5.892489910125732
      ],
      "min": [
        -3.2200000286102295,
        -21.976699829101562
      ],
      "name": "buffer-0-group-1-mesh-0-texcoord",
      "type": "VEC2"
    },
    {
      "bufferView": 0,
      "byteOffset": 3312,
      "componentType": 5123,
      "count": 18,
      "max": [
        7.0
      ],
      "min": [
        0.0
      ],
      "name": "buffer-0-group-2-mesh-0-indices",
      "type": "SCALAR"
    },
    {
      "bufferView": 1,
      "byteOffset": 21888,
      "componentType": 5126,
      "count": 8,
      "max": [
        450.0,
        2100.0,
        -0.0
      ],
      "min": [
        450.0,
        0.0,
        -1000.0
      ],
      "name": "buffer-0-group-2-mesh-0-position",
      "type": "VEC3"
    },
    {
      "bufferView": 1,
      "byteOffset": 21984,
      "componentType": 5126,
      "count": 8,
      "max": [
        1.0,
        0.0,
        -0.0
      ],
      "min": [
        1.0,
        0.0,
        -0.0
      ],
      "name": "buffer-0-group-2-mesh-0-normal",
      "type": "VEC3"
    },
    {
      "bufferView": 2,
      "byteOffset": 7296,
      "componentType": 5126,
      "count": 8,
      "max": [
        1.0,
        -0.0
      ],
      "min": [
        0.0,
        -1.0
      ],
      "name": "buffer-0-group-2-mesh-0-texcoord",
      "type": "VEC2"
    },
    {
      "bufferView": 0,
      "byteOffset": 3348,
      "componentType": 5123,
      "count": 36,
      "max": [
        15.0
      ],
      "min": [
        0.0
      ],
      "name": "buffer-0-group-3-mesh-0-indices",
      "type": "SCALAR"
    },
    {
      "bufferView": 1,
      "byteOffset": 22080,
      "componentType": 5126,
      "count": 16,
      "max": [
        450.0,
        2100.0,
        -0.0
      ],
      "min": [
        0.0,
        0.0,
        -1000.0
      ],
      "name": "buffer-0-group-3-mesh-0-position",
      "type": "VEC3"
    },
    {
      "bufferView": 1,
      "byteOffset": 22272,
      "componentType": 5126,
      "count": 16,
      "max": [
        0.0,
        0.0,
        1.0
      ],
      "min": [
        0.0,
        0.0,
        -1.0
      ],
      "name": "buffer-0-group-3-mesh-0-normal",
      "type": "VEC3"
    },
    {
      "bufferView": 2,
      "byteOffset": 7360,
      "componentType": 5126,
      "count": 16,
      "max": [
        1.0,
        -0.0
      ],
      "min": [
        -1.0,
        -1.0
      ],
      "name": "buffer-0-group-3-mesh-0-texcoord",
      "type": "VEC2"
    },
    {
      "bufferView": 0,
      "byteOffset": 3420,
      "componentType": 5123,
      "count": 18,
      "max": [
        7.0
      ],
      "min": [
        0.0
      ],
      "name": "buffer-0-group-4-mesh-0-indices",
      "type": "SCALAR"
    },
    {
      "bufferView": 1,
      "byteOffset": 22464,
      "componentType": 5126,
      "count": 8,
      "max": [
        0.0,
        2100.0,
        -0.0
      ],
      "min": [
        0.0,
        0.0,
        -1000.0
      ],
      "name": "buffer-0-group-4-mesh-0-position",
      "type": "VEC3"
    },
    {
      "bufferView": 1,
      "byteOffset": 22560,
      "componentType": 5126,
      "count": 8,
      "max": [
        -1.0,
        0.0,
        -0.0
      ],
      "min": [
        -1.0,
        0.0,
        -0.0
      ],
      "name": "buffer-0-group-4-mesh-0-normal",
      "type": "VEC3"
    },
    {
      "bufferView": 2,
      "byteOffset": 7488,
      "componentType": 5126,
      "count": 8,
      "max": [
        0.0,
        -0.0
      ],
      "min": [
        -1.0,
        -1.0
      ],
      "name": "buffer-0-group-4-mesh-0-texcoord",
      "type": "VEC2"
    },
    {
      "bufferView": 0,
      "byteOffset": 3456,
      "componentType": 5123,
      "count": 30,
      "max": [
        11.0
      ],
      "min": [
        0.0
      ],
      "name": "buffer-0-group-5-mesh-0-indices",
      "type": "SCALAR"
    },
    {
      "bufferView": 1,
      "byteOffset": 22656,
      "componentType": 5126,
      "count": 12,
      "max": [
        450.0,
        80.0,
        -0.0
      ],
      "min": [
        0.0,
        80.0,
        -1000.0
      ],
      "name": "buffer-0-group-5-mesh-0-position",
      "type": "VEC3"
    },
    {
      "bufferView": 1,
      "byteOffset": 22800,
      "componentType": 5126,
      "count": 12,
      "max": [
        0.0,
        -1.0,
        -0.0
      ],
      "min": [
        0.0,
        -1.0,
        -0.0
      ],
      "name": "buffer-0-group-5-mesh-0-normal",
      "type": "VEC3"
    },
    {
      "bufferView": 2,
      "byteOffset": 7552,
      "componentType": 5126,
      "count": 12,
      "max": [
        1.0,
        -1.0
      ],
      "min": [
        -4.771910033188765E-15,
        -2.0
      ],
      "name": "buffer-0-group-5-mesh-0-texcoord",
      "type": "VEC2"
    },
    {
      "bufferView": 0,
      "byteOffset": 3516,
      "componentType": 5123,
      "count": 6,
      "max": [
        3.0
      ],
      "min": [
        0.0
      ],
      "name": "buffer-0-group-6-mesh-0-indices",
      "type": "SCALAR"
    },
    {
      "bufferView": 1,
      "byteOffset": 22944,
      "componentType": 5126,
      "count": 4,
      "max": [
        450.0,
        2100.0,
        -0.0
      ],
      "min": [
        0.0,
        2100.0,
        -1000.0
      ],
      "name": "buffer-0-group-6-mesh-0-position",
      "type": "VEC3"
    },
    {
      "bufferView": 1,
      "byteOffset": 22992,
      "componentType": 5126,
      "count": 4,
      "max": [
        0.0,
        1.0,
        -0.0
      ],
      "min": [
        0.0,
        1.0,
        -0.0
      ],
      "name": "buffer-0-group-6-mesh-0-normal",
      "type": "VEC3"
    },
    {
      "bufferView": 2,
      "byteOffset": 7648,
      "componentType": 5126,
      "count": 4,
      "max": [
        1.0,
        -0.0
      ],
      "min": [
        -2.1232999728786154E-16,
        -1.0
      ],
      "name": "buffer-0-group-6-mesh-0-texcoord",
      "type": "VEC2"
    }
  ],
  "asset": {
    "generator": "Obj2GltfConverter",
    "version": "2.0"
  },
  "bufferViews": [
    {
      "buffer": 0,
      "byteLength": 3528,
      "byteOffset": 0,
      "name": "buffer-0-bufferview-ushort",
      "target": 34963
    },
    {
      "buffer": 0,
      "byteLength": 23040,
      "byteOffset": 3528,
      "byteStride": 12,
      "name": "buffer-0-bufferview-vec3",
      "target": 34962
    },
    {
      "buffer": 0,
      "byteLength": 7680,
      "byteOffset": 26568,
      "byteStride": 8,
      "name": "buffer-0-bufferview-vec2",
      "target": 34962
    }
  ],
  "buffers": [
    {
      "byteLength": 34248,
      "name": "buffer-0",
      "uri": "chic196.bin"
    }
  ],
  "images": [
    {
      "mimeType": "image/jpeg",
      "name": "Metal_Seamed-diffuse-image",
      "uri": "Metal_Seamed.jpg"
    },
    {
      "mimeType": "image/jpeg",
      "name": "chic196_handle_horizontal1-diffuse-image",
      "uri": "chic196_handle_horizontal1.jpg"
    },
    {
      "mimeType": "image/jpeg",
      "name": "chic196_front-diffuse-image",
      "uri": "chic196_front.jpg"
    },
    {
      "mimeType": "image/jpeg",
      "name": "chic196_sides-diffuse-image",
      "uri": "chic196_sides.jpg"
    },
    {
      "mimeType": "image/jpeg",
      "name": "chic196_back_plywood-diffuse-image",
      "uri": "chic196_back_plywood.jpg"
    },
    {
      "mimeType": "image/jpeg",
      "name": "chic196_bottom_plywood1-diffuse-image",
      "uri": "chic196_bottom_plywood1.jpg"
    },
    {
      "mimeType": "image/jpeg",
      "name": "chic196_top-diffuse-image",
      "uri": "chic196_top.jpg"
    }
  ],
  "materials": [
    {
      "alphaMode": "OPAQUE",
      "doubleSided": true,
      "name": "Metal_Seamed",
      "pbrMetallicRoughness": {
        "baseColorFactor": [
          0.462745,
          0.466667,
          0.447059,
          1.0
        ],
        "baseColorTexture": {
          "index": 0,
          "texCoord": 0
        },
        "metallicFactor": 0.0,
        "roughnessFactor": 0.9699476628648295
      }
    },
    {
      "alphaMode": "OPAQUE",
      "doubleSided": true,
      "name": "chic196_handle_horizontal1",
      "pbrMetallicRoughness": {
        "baseColorFactor": [
          0.34902,
          0.341176,
          0.313725,
          1.0
        ],
        "baseColorTexture": {
          "index": 1,
          "texCoord": 0
        },
        "metallicFactor": 0.0,
        "roughnessFactor": 0.9699476628648295
      }
    },
    {
      "alphaMode": "OPAQUE",
      "doubleSided": true,
      "name": "chic196_front",
      "pbrMetallicRoughness": {
        "baseColorFactor": [
          0.576471,
          0.486275,
          0.372549,
          1.0
        ],
        "baseColorTexture": {
          "index": 2,
          "texCoord": 0
        },
        "metallicFactor": 0.0,
        "roughnessFactor": 0.9699476628648295
      }
    },
    {
      "alphaMode": "OPAQUE",
      "doubleSided": true,
      "name": "chic196_sides",
      "pbrMetallicRoughness": {
        "baseColorFactor": [
          0.639216,
          0.533333,
          0.4,
          1.0
        ],
        "baseColorTexture": {
          "index": 3,
          "texCoord": 0
        },
        "metallicFactor": 0.0,
        "roughnessFactor": 0.9699476628648295
      }
    },
    {
      "alphaMode": "OPAQUE",
      "doubleSided": true,
      "name": "chic196_back_plywood",
      "pbrMetallicRoughness": {
        "baseColorFactor": [
          0.611765,
          0.454902,
          0.345098,
          1.0
        ],
        "baseColorTexture": {
          "index": 4,
          "texCoord": 0
        },
        "metallicFactor": 0.0,
        "roughnessFactor": 0.9699476628648295
      }
    },
    {
      "alphaMode": "OPAQUE",
      "doubleSided": true,
      "name": "chic196_bottom_plywood1",
      "pbrMetallicRoughness": {
        "baseColorFactor": [
          0.643137,
          0.482353,
          0.364706,
          1.0
        ],
        "baseColorTexture": {
          "index": 5,
          "texCoord": 0
        },
        "metallicFactor": 0.0,
        "roughnessFactor": 0.9699476628648295
      }
    },
    {
      "alphaMode": "OPAQUE",
      "doubleSided": true,
      "name": "chic196_top",
      "pbrMetallicRoughness": {
        "baseColorFactor": [
          0.631373,
          0.52549,
          0.392157,
          1.0
        ],
        "baseColorTexture": {
          "index": 6,
          "texCoord": 0
        },
        "metallicFactor": 0.0,
        "roughnessFactor": 0.9699476628648295
      }
    }
  ],
  "meshes": [
    {
      "name": "buffer-0-mesh-0",
      "primitives": [
        {
          "attributes": {
            "POSITION": 1,
            "NORMAL": 2,
            "TEXCOORD_0": 3
          },
          "indices": 0,
          "material": 0,
          "mode": 4
        },
        {
          "attributes": {
            "POSITION": 5,
            "NORMAL": 6,
            "TEXCOORD_0": 7
          },
          "indices": 4,
          "material": 1,
          "mode": 4
        },
        {
          "attributes": {
            "POSITION": 9,
            "NORMAL": 10,
            "TEXCOORD_0": 11
          },
          "indices": 8,
          "material": 2,
          "mode": 4
        },
        {
          "attributes": {
            "POSITION": 13,
            "NORMAL": 14,
            "TEXCOORD_0": 15
          },
          "indices": 12,
          "material": 3,
          "mode": 4
        },
        {
          "attributes": {
            "POSITION": 17,
            "NORMAL": 18,
            "TEXCOORD_0": 19
          },
          "indices": 16,
          "material": 4,
          "mode": 4
        },
        {
          "attributes": {
            "POSITION": 21,
            "NORMAL": 22,
            "TEXCOORD_0": 23
          },
          "indices": 20,
          "material": 5,
          "mode": 4
        },
        {
          "attributes": {
            "POSITION": 25,
            "NORMAL": 26,
            "TEXCOORD_0": 27
          },
          "indices": 24,
          "material": 6,
          "mode": 4
        }
      ]
    }
  ],
  "nodes": [
    {
      "mesh": 0,
      "name": "node-0"
    }
  ],
  "samplers": [
    {
      "name": "Metal_Seamed-diffuse-sampler",
      "wrapS": 10497,
      "wrapT": 10497
    },
    {
      "name": "chic196_handle_horizontal1-diffuse-sampler",
      "wrapS": 10497,
      "wrapT": 10497
    },
    {
      "name": "chic196_front-diffuse-sampler",
      "wrapS": 10497,
      "wrapT": 10497
    },
    {
      "name": "chic196_sides-diffuse-sampler",
      "wrapS": 10497,
      "wrapT": 10497
    },
    {
      "name": "chic196_back_plywood-diffuse-sampler",
      "wrapS": 10497,
      "wrapT": 10497
    },
    {
      "name": "chic196_bottom_plywood1-diffuse-sampler",
      "wrapS": 10497,
      "wrapT": 10497
    },
    {
      "name": "chic196_top-diffuse-sampler",
      "wrapS": 10497,
      "wrapT": 10497
    }
  ],
  "scenes": [
    {
      "name": "scene-0",
      "nodes": [
        0
      ]
    }
  ],
  "textures": [
    {
      "name": "Metal_Seamed-diffuse-texture",
      "sampler": 0,
      "source": 0
    },
    {
      "name": "chic196_handle_horizontal1-diffuse-texture",
      "sampler": 1,
      "source": 1
    },
    {
      "name": "chic196_front-diffuse-texture",
      "sampler": 2,
      "source": 2
    },
    {
      "name": "chic196_sides-diffuse-texture",
      "sampler": 3,
      "source": 3
    },
    {
      "name": "chic196_back_plywood-diffuse-texture",
      "sampler": 4,
      "source": 4
    },
    {
      "name": "chic196_bottom_plywood1-diffuse-texture",
      "sampler": 5,
      "source": 5
    },
    {
      "name": "chic196_top-diffuse-texture",
      "sampler": 6,
      "source": 6
    }
  ]
}