{
	"accessors" : 
	[
		{
			"bufferView" : 2,
			"byteOffset" : 0,
			"componentType" : 5126,
			"count" : 15748,
			"max" : 
			[
				0.729918897151947,
				0.6940805315971375,
				0.7226724624633789,
				1
			],
			"min" : 
			[
				0.006584956776350737,
				0.006584956776350737,
				0.006584956776350737,
				1
			],
			"name" : "accessor_color_m0-PolyPaper20_-367038",
			"type" : "VEC4"
		},
		{
			"bufferView" : 2,
			"byteOffset" : 251968,
			"componentType" : 5126,
			"count" : 2122,
			"max" : 
			[
				0.6320426464080811,
				0.6940805315971375,
				0.7226724624633789,
				1
			],
			"min" : 
			[
				0.05637409910559654,
				0.08919350802898407,
				0.06190747767686844,
				1
			],
			"name" : "accessor_color_m2-PolyPaper15_-367050",
			"type" : "VEC4"
		},
		{
			"bufferView" : 0,
			"byteOffset" : 0,
			"componentType" : 5123,
			"count" : 21456,
			"max" : 
			[
				15747
			],
			"min" : 
			[
				0
			],
			"name" : "accessor_indices_0_m0-PolyPaper20_-367038",
			"type" : "SCALAR"
		},
		{
			"bufferView" : 0,
			"byteOffset" : 42912,
			"componentType" : 5123,
			"count" : 2748,
			"max" : 
			[
				2121
			],
			"min" : 
			[
				0
			],
			"name" : "accessor_indices_0_m2-PolyPaper15_-367050",
			"type" : "SCALAR"
		},
		{
			"bufferView" : 1,
			"byteOffset" : 188976,
			"componentType" : 5126,
			"count" : 15748,
			"max" : 
			[
				1,
				1,
				0.9999999000000001
			],
			"min" : 
			[
				-1,
				-1,
				-0.9999501
			],
			"name" : "accessor_normal_m0-PolyPaper20_-367038",
			"type" : "VEC3"
		},
		{
			"bufferView" : 1,
			"byteOffset" : 403416,
			"componentType" : 5126,
			"count" : 2122,
			"max" : 
			[
				1,
				0.9994944,
				1
			],
			"min" : 
			[
				-1,
				-1,
				-1
			],
			"name" : "accessor_normal_m2-PolyPaper15_-367050",
			"type" : "VEC3"
		},
		{
			"bufferView" : 1,
			"byteOffset" : 0,
			"componentType" : 5126,
			"count" : 15748,
			"max" : 
			[
				0.8646238000000001,
				2.281426,
				0.03729451
			],
			"min" : 
			[
				0.5384169,
				0.83607,
				-0.5170178
			],
			"name" : "accessor_position_m0-PolyPaper20_-367038",
			"type" : "VEC3"
		},
		{
			"bufferView" : 1,
			"byteOffset" : 377952,
			"componentType" : 5126,
			"count" : 2122,
			"max" : 
			[
				0.9000854,
				2.019902,
				-0.01167828
			],
			"min" : 
			[
				0.7224485,
				1.311025,
				-0.4780498
			],
			"name" : "accessor_position_m2-PolyPaper15_-367050",
			"type" : "VEC3"
		}
	],
	"asset" : 
	{
		"copyright" : "Unknown",
		"generator" : "glTF 1-to-2 Upgrader for Google Blocks",
		"version" : "2.0"
	},
	"bufferViews" : 
	[
		{
			"buffer" : 0,
			"byteLength" : 48408,
			"byteOffset" : 0,
			"name" : "ushortBufferView",
			"target" : 34963
		},
		{
			"buffer" : 0,
			"byteLength" : 428880,
			"byteOffset" : 48408,
			"byteStride" : 12,
			"name" : "vec3BufferView",
			"target" : 34962
		},
		{
			"buffer" : 0,
			"byteLength" : 285920,
			"byteOffset" : 477288,
			"byteStride" : 16,
			"name" : "vec4BufferView",
			"target" : 34962
		}
	],
	"buffers" : 
	[
		{
			"byteLength" : 763208,
			"name" : "model",
			"uri" : "model.bin"
		}
	],
	"materials" : 
	[
		{
			"alphaMode" : "OPAQUE",
			"doubleSided" : false,
			"name" : "BlocksPaper",
			"pbrMetallicRoughness" : 
			{
				"baseColorFactor" : 
				[
					1,
					1,
					1,
					1
				],
				"metallicFactor" : 0,
				"roughnessFactor" : 0.6
			}
		},
		{
			"alphaMode" : "BLEND",
			"doubleSided" : false,
			"name" : "BlocksGlass",
			"pbrMetallicRoughness" : 
			{
				"baseColorFactor" : 
				[
					0.2,
					0.2,
					1,
					0.3
				],
				"metallicFactor" : 1,
				"roughnessFactor" : 0.4
			}
		},
		{
			"alphaMode" : "OPAQUE",
			"doubleSided" : true,
			"name" : "BlocksGem",
			"pbrMetallicRoughness" : 
			{
				"baseColorFactor" : 
				[
					1,
					0.4,
					1,
					1
				],
				"metallicFactor" : 0,
				"roughnessFactor" : 0.1
			}
		}
	],
	"meshes" : 
	[
		{
			"name" : "mesh_m0-PolyPaper20_-367038",
			"primitives" : 
			[
				{
					"attributes" : 
					{
						"COLOR_0" : 0,
						"NORMAL" : 4,
						"POSITION" : 6
					},
					"indices" : 2,
					"material" : 0,
					"mode" : 4
				}
			]
		},
		{
			"name" : "mesh_m2-PolyPaper15_-367050",
			"primitives" : 
			[
				{
					"attributes" : 
					{
						"COLOR_0" : 1,
						"NORMAL" : 5,
						"POSITION" : 7
					},
					"indices" : 3,
					"material" : 0,
					"mode" : 4
				}
			]
		}
	],
	"nodes" : 
	[
		{
			"matrix" : 
			[
				1,
				0,
				0,
				0,
				0,
				1,
				0,
				0,
				0,
				0,
				1,
				0,
				0,
				0,
				0,
				1
			],
			"mesh" : 0,
			"name" : "node_MeshObject-1509994496-PolyPaper20"
		},
		{
			"matrix" : 
			[
				1,
				0,
				0,
				0,
				0,
				1,
				0,
				0,
				0,
				0,
				1,
				0,
				0,
				0,
				0,
				1
			],
			"mesh" : 1,
			"name" : "node_MeshObject787069952-PolyPaper15"
		}
	],
	"scene" : 0,
	"scenes" : 
	[
		{
			"extras" : {},
			"name" : "defaultScene",
			"nodes" : 
			[
				0,
				1
			]
		}
	]
}