{
	"accessors" : 
	[
		{
			"bufferView" : 2,
			"byteOffset" : 0,
			"componentType" : 5126,
			"count" : 4,
			"max" : 
			[
				1,
				1,
				1,
				1
			],
			"min" : 
			[
				1,
				1,
				1,
				1
			],
			"name" : "accessor_color_m0-PolyGem25_-200022",
			"type" : "VEC4"
		},
		{
			"bufferView" : 2,
			"byteOffset" : 64,
			"componentType" : 5126,
			"count" : 9678,
			"max" : 
			[
				0.3488648533821106,
				0.3488648533821106,
				0.3488648533821106,
				1
			],
			"min" : 
			[
				0.3488648533821106,
				0.3488648533821106,
				0.3488648533821106,
				1
			],
			"name" : "accessor_color_m1-PolyPaper22_-154396",
			"type" : "VEC4"
		},
		{
			"bufferView" : 2,
			"byteOffset" : 154912,
			"componentType" : 5126,
			"count" : 518,
			"max" : 
			[
				0.9075471758842468,
				0.4368127584457397,
				0.7893137335777283,
				1
			],
			"min" : 
			[
				5.692175545846112e-05,
				0.006584956776350737,
				0.006584956776350737,
				1
			],
			"name" : "accessor_color_m2-PolyPaper23_-200024",
			"type" : "VEC4"
		},
		{
			"bufferView" : 2,
			"byteOffset" : 163200,
			"componentType" : 5126,
			"count" : 9866,
			"max" : 
			[
				1,
				1,
				1,
				1
			],
			"min" : 
			[
				5.692175545846112e-05,
				0.006584956776350737,
				0.006584956776350737,
				1
			],
			"name" : "accessor_color_m3-PolyPaper23_-200020",
			"type" : "VEC4"
		},
		{
			"bufferView" : 0,
			"byteOffset" : 0,
			"componentType" : 5123,
			"count" : 6,
			"max" : 
			[
				3
			],
			"min" : 
			[
				0
			],
			"name" : "accessor_indices_0_m0-PolyGem25_-200022",
			"type" : "SCALAR"
		},
		{
			"bufferView" : 0,
			"byteOffset" : 12,
			"componentType" : 5123,
			"count" : 13788,
			"max" : 
			[
				9677
			],
			"min" : 
			[
				0
			],
			"name" : "accessor_indices_0_m1-PolyPaper22_-154396",
			"type" : "SCALAR"
		},
		{
			"bufferView" : 0,
			"byteOffset" : 27588,
			"componentType" : 5123,
			"count" : 954,
			"max" : 
			[
				517
			],
			"min" : 
			[
				0
			],
			"name" : "accessor_indices_0_m2-PolyPaper23_-200024",
			"type" : "SCALAR"
		},
		{
			"bufferView" : 0,
			"byteOffset" : 29496,
			"componentType" : 5123,
			"count" : 14508,
			"max" : 
			[
				9865
			],
			"min" : 
			[
				0
			],
			"name" : "accessor_indices_0_m3-PolyPaper23_-200020",
			"type" : "SCALAR"
		},
		{
			"bufferView" : 1,
			"byteOffset" : 48,
			"componentType" : 5126,
			"count" : 4,
			"max" : 
			[
				0.9163088,
				-0.002100587,
				0.4004729
			],
			"min" : 
			[
				0.9163062,
				-0.002100602,
				0.4004668
			],
			"name" : "accessor_normal_m0-PolyGem25_-200022",
			"type" : "VEC3"
		},
		{
			"bufferView" : 1,
			"byteOffset" : 116232,
			"componentType" : 5126,
			"count" : 9678,
			"max" : 
			[
				0.9977019,
				0.9999969,
				0.9993115
			],
			"min" : 
			[
				-0.9977019,
				-0.9999969,
				-0.9993115
			],
			"name" : "accessor_normal_m1-PolyPaper22_-154396",
			"type" : "VEC3"
		},
		{
			"bufferView" : 1,
			"byteOffset" : 238584,
			"componentType" : 5126,
			"count" : 518,
			"max" : 
			[
				0.9950324,
				0.9880038,
				0.9748785
			],
			"min" : 
			[
				-0.9950324,
				-0.9858603,
				-0.9519404
			],
			"name" : "accessor_normal_m2-PolyPaper23_-200024",
			"type" : "VEC3"
		},
		{
			"bufferView" : 1,
			"byteOffset" : 363192,
			"componentType" : 5126,
			"count" : 9866,
			"max" : 
			[
				0.9992661,
				0.9999475,
				0.9992405
			],
			"min" : 
			[
				-0.9992661,
				-0.9999475,
				-0.9992403
			],
			"name" : "accessor_normal_m3-PolyPaper23_-200020",
			"type" : "VEC3"
		},
		{
			"bufferView" : 1,
			"byteOffset" : 0,
			"componentType" : 5126,
			"count" : 4,
			"max" : 
			[
				-0.2599402,
				1.17282,
				0.6614669
			],
			"min" : 
			[
				-0.2665749,
				0.7695786,
				0.6483999
			],
			"name" : "accessor_position_m0-PolyGem25_-200022",
			"type" : "VEC3"
		},
		{
			"bufferView" : 1,
			"byteOffset" : 96,
			"componentType" : 5126,
			"count" : 9678,
			"max" : 
			[
				0.3071204,
				1.566904,
				0.809733
			],
			"min" : 
			[
				-0.2935697,
				0.7580051,
				0.1419211
			],
			"name" : "accessor_position_m1-PolyPaper22_-154396",
			"type" : "VEC3"
		},
		{
			"bufferView" : 1,
			"byteOffset" : 232368,
			"componentType" : 5126,
			"count" : 518,
			"max" : 
			[
				0.267813,
				1.503529,
				0.4404838
			],
			"min" : 
			[
				-0.1259325,
				1.330676,
				0.2635188
			],
			"name" : "accessor_position_m2-PolyPaper23_-200024",
			"type" : "VEC3"
		},
		{
			"bufferView" : 1,
			"byteOffset" : 244800,
			"componentType" : 5126,
			"count" : 9866,
			"max" : 
			[
				0.3072131,
				1.566733,
				0.8098198
			],
			"min" : 
			[
				-0.2931274,
				0.7583787,
				0.14302
			],
			"name" : "accessor_position_m3-PolyPaper23_-200020",
			"type" : "VEC3"
		}
	],
	"asset" : 
	{
		"copyright" : "Unknown",
		"generator" : "glTF 1-to-2 Upgrader for Google Blocks",
		"version" : "2.0"
	},
	"bufferViews" : 
	[
		{
			"buffer" : 0,
			"byteLength" : 58512,
			"byteOffset" : 0,
			"name" : "ushortBufferView",
			"target" : 34963
		},
		{
			"buffer" : 0,
			"byteLength" : 481584,
			"byteOffset" : 58512,
			"byteStride" : 12,
			"name" : "vec3BufferView",
			"target" : 34962
		},
		{
			"buffer" : 0,
			"byteLength" : 321056,
			"byteOffset" : 540096,
			"byteStride" : 16,
			"name" : "vec4BufferView",
			"target" : 34962
		}
	],
	"buffers" : 
	[
		{
			"byteLength" : 861152,
			"name" : "model",
			"uri" : "model.bin"
		}
	],
	"materials" : 
	[
		{
			"alphaMode" : "OPAQUE",
			"doubleSided" : false,
			"name" : "BlocksPaper",
			"pbrMetallicRoughness" : 
			{
				"baseColorFactor" : 
				[
					1,
					1,
					1,
					1
				],
				"metallicFactor" : 0,
				"roughnessFactor" : 0.6
			}
		},
		{
			"alphaMode" : "BLEND",
			"doubleSided" : false,
			"name" : "BlocksGlass",
			"pbrMetallicRoughness" : 
			{
				"baseColorFactor" : 
				[
					0.2,
					0.2,
					1,
					0.3
				],
				"metallicFactor" : 1,
				"roughnessFactor" : 0.4
			}
		},
		{
			"alphaMode" : "OPAQUE",
			"doubleSided" : true,
			"name" : "BlocksGem",
			"pbrMetallicRoughness" : 
			{
				"baseColorFactor" : 
				[
					1,
					0.4,
					1,
					1
				],
				"metallicFactor" : 0,
				"roughnessFactor" : 0.1
			}
		}
	],
	"meshes" : 
	[
		{
			"name" : "mesh_m0-PolyGem25_-200022",
			"primitives" : 
			[
				{
					"attributes" : 
					{
						"COLOR_0" : 0,
						"NORMAL" : 8,
						"POSITION" : 12
					},
					"indices" : 4,
					"material" : 2,
					"mode" : 4
				}
			]
		},
		{
			"name" : "mesh_m1-PolyPaper22_-154396",
			"primitives" : 
			[
				{
					"attributes" : 
					{
						"COLOR_0" : 1,
						"NORMAL" : 9,
						"POSITION" : 13
					},
					"indices" : 5,
					"material" : 0,
					"mode" : 4
				}
			]
		},
		{
			"name" : "mesh_m2-PolyPaper23_-200024",
			"primitives" : 
			[
				{
					"attributes" : 
					{
						"COLOR_0" : 2,
						"NORMAL" : 10,
						"POSITION" : 14
					},
					"indices" : 6,
					"material" : 0,
					"mode" : 4
				}
			]
		},
		{
			"name" : "mesh_m3-PolyPaper23_-200020",
			"primitives" : 
			[
				{
					"attributes" : 
					{
						"COLOR_0" : 3,
						"NORMAL" : 11,
						"POSITION" : 15
					},
					"indices" : 7,
					"material" : 0,
					"mode" : 4
				}
			]
		}
	],
	"nodes" : 
	[
		{
			"matrix" : 
			[
				1,
				0,
				0,
				0,
				0,
				1,
				0,
				0,
				0,
				0,
				1,
				0,
				0,
				0,
				0,
				1
			],
			"mesh" : 0,
			"name" : "node_MeshObject-1488848320-PolyGem25"
		},
		{
			"matrix" : 
			[
				1,
				0,
				0,
				0,
				0,
				1,
				0,
				0,
				0,
				0,
				1,
				0,
				0,
				0,
				0,
				1
			],
			"mesh" : 1,
			"name" : "node_MeshObject-2069675456-PolyPaper22"
		},
		{
			"matrix" : 
			[
				1,
				0,
				0,
				0,
				0,
				1,
				0,
				0,
				0,
				0,
				1,
				0,
				0,
				0,
				0,
				1
			],
			"mesh" : 3,
			"name" : "node_MeshObject1768678848-PolyPaper23"
		},
		{
			"matrix" : 
			[
				1,
				0,
				0,
				0,
				0,
				1,
				0,
				0,
				0,
				0,
				1,
				0,
				0,
				0,
				0,
				1
			],
			"mesh" : 2,
			"name" : "node_MeshObject67311872-PolyPaper23"
		}
	],
	"scene" : 0,
	"scenes" : 
	[
		{
			"extras" : {},
			"name" : "defaultScene",
			"nodes" : 
			[
				0,
				1,
				3,
				2
			]
		}
	]
}