{
  "accessors": [
    {
      "bufferView": 2,
      "componentType": 5126,
      "count": 559,
      "max": [
        -0.043800000101327896,
        -3.5732998847961426,
        113.18890380859375
      ],
      "min": [
        -2.4281001091003418,
        -5.9576001167297363,
        110.79949951171875
      ],
      "type": "VEC3"
    },
    {
      "bufferView": 2,
      "byteOffset": 6708,
      "componentType": 5126,
      "count": 559,
      "max": [
        0.99785929918289185,
        0.99785929918289185,
        1
      ],
      "min": [
        -0.99785929918289185,
        -0.99785929918289185,
        -1
      ],
      "type": "VEC3"
    },
    {
      "bufferView": 3,
      "componentType": 5126,
      "count": 559,
      "max": [
        0.99946200847625732,
        0.99945944547653198,
        0.049295466393232346,
        1
      ],
      "min": [
        -0.99946171045303345,
        -0.999461829662323,
        -0.049299843609333038,
        1
      ],
      "type": "VEC4"
    },
    {
      "bufferView": 0,
      "componentType": 5125,
      "count": 2880,
      "max": [
        558
      ],
      "min": [
        0
      ],
      "type": "SCALAR"
    },
    {
      "bufferView": 2,
      "byteOffset": 13416,
      "componentType": 5126,
      "count": 924,
      "max": [
        18.072900772094727,
        31.997100830078125,
        60.755001068115234
      ],
      "min": [
        -7.8796000480651855,
        -5.3969998359680176,
        0.22939999401569366
      ],
      "type": "VEC3"
    },
    {
      "bufferView": 2,
      "byteOffset": 24504,
      "componentType": 5126,
      "count": 924,
      "max": [
        0.60208702087402344,
        0.96585822105407715,
        0.99986791610717773
      ],
      "min": [
        -0.60208702087402344,
        -0.99941825866699219,
        -1
      ],
      "type": "VEC3"
    },
    {
      "bufferView": 0,
      "byteOffset": 11520,
      "componentType": 5125,
      "count": 4242,
      "max": [
        923
      ],
      "min": [
        0
      ],
      "type": "SCALAR"
    },
    {
      "bufferView": 2,
      "byteOffset": 35592,
      "componentType": 5126,
      "count": 1824,
      "max": [
        0.17129999399185181,
        -1.7905000448226929,
        58.013401031494141
      ],
      "min": [
        -1.7295000553131104,
        -4.024899959564209,
        56.818599700927734
      ],
      "type": "VEC3"
    },
    {
      "bufferView": 2,
      "byteOffset": 57480,
      "componentType": 5126,
      "count": 1824,
      "max": [
        0.99979525804519653,
        0.99979525804519653,
        0.99837976694107056
      ],
      "min": [
        -0.99979525804519653,
        -0.99979525804519653,
        -0.99803620576858521
      ],
      "type": "VEC3"
    },
    {
      "bufferView": 0,
      "byteOffset": 28488,
      "componentType": 5125,
      "count": 10368,
      "max": [
        1823
      ],
      "min": [
        0
      ],
      "type": "SCALAR"
    },
    {
      "bufferView": 2,
      "byteOffset": 79368,
      "componentType": 5126,
      "count": 1824,
      "max": [
        5.0872001647949219,
        16.556100845336914,
        44.295600891113281
      ],
      "min": [
        3.1863999366760254,
        14.321700096130371,
        43.100799560546875
      ],
      "type": "VEC3"
    },
    {
      "bufferView": 2,
      "byteOffset": 101256,
      "componentType": 5126,
      "count": 1824,
      "max": [
        0.99978965520858765,
        0.99978965520858765,
        0.99803704023361206
      ],
      "min": [
        -0.99978965520858765,
        -0.99978965520858765,
        -0.99838024377822876
      ],
      "type": "VEC3"
    },
    {
      "bufferView": 0,
      "byteOffset": 69960,
      "componentType": 5125,
      "count": 10368,
      "max": [
        1823
      ],
      "min": [
        0
      ],
      "type": "SCALAR"
    },
    {
      "bufferView": 2,
      "byteOffset": 123144,
      "componentType": 5126,
      "count": 23424,
      "max": [
        18.999099731445312,
        32.923301696777344,
        56.238498687744141
      ],
      "min": [
        -8.8058996200561523,
        5.1184000968933105,
        1.7206000089645386
      ],
      "type": "VEC3"
    },
    {
      "bufferView": 2,
      "byteOffset": 404232,
      "componentType": 5126,
      "count": 23424,
      "max": [
        0.99999797344207764,
        0.99999797344207764,
        1
      ],
      "min": [
        -0.99999797344207764,
        -0.99999797344207764,
        -1
      ],
      "type": "VEC3"
    },
    {
      "bufferView": 0,
      "byteOffset": 111432,
      "componentType": 5125,
      "count": 127722,
      "max": [
        23423
      ],
      "min": [
        0
      ],
      "type": "SCALAR"
    },
    {
      "bufferView": 2,
      "byteOffset": 685320,
      "componentType": 5126,
      "count": 28608,
      "max": [
        18.999099731445312,
        32.923301696777344,
        55.804698944091797
      ],
      "min": [
        -8.8058996200561523,
        5.1184000968933105,
        0.22939999401569366
      ],
      "type": "VEC3"
    },
    {
      "bufferView": 2,
      "byteOffset": 1028616,
      "componentType": 5126,
      "count": 28608,
      "max": [
        1,
        1,
        0.99995970726013184
      ],
      "min": [
        -1,
        -1,
        -0.9992368221282959
      ],
      "type": "VEC3"
    },
    {
      "bufferView": 0,
      "byteOffset": 622320,
      "componentType": 5125,
      "count": 158976,
      "max": [
        28607
      ],
      "min": [
        0
      ],
      "type": "SCALAR"
    },
    {
      "bufferView": 2,
      "byteOffset": 1371912,
      "componentType": 5126,
      "count": 2712,
      "max": [
        4.4530000686645508,
        15.767200469970703,
        61.372798919677734
      ],
      "min": [
        -1.0952999591827393,
        -3.2360000610351562,
        38.618999481201172
      ],
      "type": "VEC3"
    },
    {
      "bufferView": 2,
      "byteOffset": 1404456,
      "componentType": 5126,
      "count": 2712,
      "max": [
        0.99952477216720581,
        0.99941825866699219,
        1
      ],
      "min": [
        -0.99952477216720581,
        -0.99941825866699219,
        -0.99986791610717773
      ],
      "type": "VEC3"
    },
    {
      "bufferView": 0,
      "byteOffset": 1258224,
      "componentType": 5125,
      "count": 14496,
      "max": [
        2711
      ],
      "min": [
        0
      ],
      "type": "SCALAR"
    },
    {
      "bufferView": 2,
      "byteOffset": 1437000,
      "componentType": 5126,
      "count": 2880,
      "max": [
        2.8548998832702637,
        -0.68910002708435059,
        64.716598510742188
      ],
      "min": [
        -5.4323000907897949,
        -8.9300003051757812,
        50.480899810791016
      ],
      "type": "VEC3"
    },
    {
      "bufferView": 2,
      "byteOffset": 1471560,
      "componentType": 5126,
      "count": 2880,
      "max": [
        0.99144750833511353,
        0.99144750833511353,
        0.9999769926071167
      ],
      "min": [
        -0.99144750833511353,
        -0.99144750833511353,
        -1
      ],
      "type": "VEC3"
    },
    {
      "bufferView": 0,
      "byteOffset": 1316208,
      "componentType": 5125,
      "count": 13632,
      "max": [
        2879
      ],
      "min": [
        0
      ],
      "type": "SCALAR"
    },
    {
      "bufferView": 2,
      "byteOffset": 1506120,
      "componentType": 5126,
      "count": 1664,
      "max": [
        2.9856998920440674,
        7.5847001075744629,
        57.829601287841797
      ],
      "min": [
        0.38089999556541443,
        4.9798002243041992,
        45.636398315429688
      ],
      "type": "VEC3"
    },
    {
      "bufferView": 2,
      "byteOffset": 1526088,
      "componentType": 5126,
      "count": 1664,
      "max": [
        0.99144148826599121,
        0.99144148826599121,
        0.96508848667144775
      ],
      "min": [
        -0.99144148826599121,
        -0.99144148826599121,
        -0.96294397115707397
      ],
      "type": "VEC3"
    },
    {
      "bufferView": 0,
      "byteOffset": 1370736,
      "componentType": 5125,
      "count": 9408,
      "max": [
        1663
      ],
      "min": [
        0
      ],
      "type": "SCALAR"
    },
    {
      "bufferView": 2,
      "byteOffset": 1546056,
      "componentType": 5126,
      "count": 96,
      "max": [
        -0.63609999418258667,
        -4.1132998466491699,
        112.95639801025391
      ],
      "min": [
        -1.9093999862670898,
        -5.3867001533508301,
        63.030300140380859
      ],
      "type": "VEC3"
    },
    {
      "bufferView": 2,
      "byteOffset": 1547208,
      "componentType": 5126,
      "count": 96,
      "max": [
        0.99144750833511353,
        0.99144750833511353,
        -0
      ],
      "min": [
        -0.99144750833511353,
        -0.99144750833511353,
        -1
      ],
      "type": "VEC3"
    },
    {
      "bufferView": 0,
      "byteOffset": 1408368,
      "componentType": 5125,
      "count": 288,
      "max": [
        95
      ],
      "min": [
        0
      ],
      "type": "SCALAR"
    },
    {
      "bufferView": 2,
      "byteOffset": 1548360,
      "componentType": 5126,
      "count": 352,
      "max": [
        27.151100158691406,
        23.669599533081055,
        111.44129943847656
      ],
      "min": [
        -29.699699401855469,
        -33.181198120117188,
        70.305702209472656
      ],
      "type": "VEC3"
    },
    {
      "bufferView": 2,
      "byteOffset": 1552584,
      "componentType": 5126,
      "count": 352,
      "max": [
        0.95983386039733887,
        0.95983386039733887,
        0.9999161958694458
      ],
      "min": [
        -0.95983386039733887,
        -0.95983386039733887,
        0.26649388670921326
      ],
      "type": "VEC3"
    },
    {
      "bufferView": 3,
      "byteOffset": 8944,
      "componentType": 5126,
      "count": 352,
      "max": [
        0.8455507755279541,
        0.9978562593460083,
        0.96378397941589355,
        1
      ],
      "min": [
        -0.84555286169052124,
        -0.9978562593460083,
        -0.96378391981124878,
        1
      ],
      "type": "VEC4"
    },
    {
      "bufferView": 1,
      "componentType": 5126,
      "count": 352,
      "max": [
        0.99949997663497925,
        0.99949997663497925
      ],
      "min": [
        0.00050000002374872565,
        0.00050000002374872565
      ],
      "type": "VEC2"
    },
    {
      "bufferView": 0,
      "byteOffset": 1409520,
      "componentType": 5125,
      "count": 576,
      "max": [
        351
      ],
      "min": [
        0
      ],
      "type": "SCALAR"
    }
  ],
  "asset": {
    "extras": {
      "author": "Saurabh.Kapoor (https://sketchfab.com/Saurabh.Kapoor)",
      "license": "CC-BY-4.0 (http://creativecommons.org/licenses/by/4.0/)",
      "source": "https://sketchfab.com/models/ef272b3001574c62846750f11ac8ac59",
      "title": "Lamp"
    },
    "generator": "Sketchfab-3.20.7",
    "version": "2.0"
  },
  "bufferViews": [
    {
      "buffer": 0,
      "byteLength": 1411824,
      "byteOffset": 0,
      "name": "floatBufferViews",
      "target": 34963
    },
    {
      "buffer": 0,
      "byteLength": 2816,
      "byteOffset": 1411824,
      "byteStride": 8,
      "name": "floatBufferViews",
      "target": 34962
    },
    {
      "buffer": 0,
      "byteLength": 1556808,
      "byteOffset": 1414640,
      "byteStride": 12,
      "name": "floatBufferViews",
      "target": 34962
    },
    {
      "buffer": 0,
      "byteLength": 14576,
      "byteOffset": 2971448,
      "byteStride": 16,
      "name": "floatBufferViews",
      "target": 34962
    }
  ],
  "buffers": [
    {
      "byteLength": 2986024,
      "uri": "scene.bin"
    }
  ],
  "images": [
    {
      "uri": "textures/wire_255255255_baseColor.jpeg"
    }
  ],
  "materials": [
    {
      "alphaMode": "BLEND",
      "doubleSided": true,
      "emissiveFactor": [
        0,
        0,
        0
      ],
      "name": "wire_135059008",
      "pbrMetallicRoughness": {
        "baseColorFactor": [
          0.028281841375975864,
          0.024879445235121572,
          0.024879445235121572,
          0.93730945119999998
        ],
        "metallicFactor": 0.44073932929999998,
        "roughnessFactor": 0.35804115849999996
      }
    },
    {
      "doubleSided": true,
      "emissiveFactor": [
        0,
        0,
        0
      ],
      "name": "wire_177148027",
      "pbrMetallicRoughness": {
        "baseColorFactor": [
          0.057297834300000003,
          0.057297834300000003,
          0.057297834300000003,
          1
        ],
        "metallicFactor": 0,
        "roughnessFactor": 0.91675550189999999
      }
    },
    {
      "doubleSided": true,
      "emissiveFactor": [
        0,
        0,
        0
      ],
      "name": "wire_255255255",
      "pbrMetallicRoughness": {
        "baseColorFactor": [
          1,
          1,
          1,
          1
        ],
        "baseColorTexture": {
          "index": 0,
          "texCoord": 0
        },
        "metallicFactor": 0,
        "roughnessFactor": 0.91675550189999999
      }
    }
  ],
  "meshes": [
    {
      "primitives": [
        {
          "attributes": {
            "NORMAL": 1,
            "POSITION": 0,
            "TANGENT": 2
          },
          "indices": 3,
          "material": 0,
          "mode": 4
        }
      ]
    },
    {
      "primitives": [
        {
          "attributes": {
            "NORMAL": 5,
            "POSITION": 4
          },
          "indices": 6,
          "material": 0,
          "mode": 4
        }
      ]
    },
    {
      "primitives": [
        {
          "attributes": {
            "NORMAL": 8,
            "POSITION": 7
          },
          "indices": 9,
          "material": 0,
          "mode": 4
        }
      ]
    },
    {
      "primitives": [
        {
          "attributes": {
            "NORMAL": 11,
            "POSITION": 10
          },
          "indices": 12,
          "material": 0,
          "mode": 4
        }
      ]
    },
    {
      "primitives": [
        {
          "attributes": {
            "NORMAL": 14,
            "POSITION": 13
          },
          "indices": 15,
          "material": 0,
          "mode": 4
        }
      ]
    },
    {
      "primitives": [
        {
          "attributes": {
            "NORMAL": 17,
            "POSITION": 16
          },
          "indices": 18,
          "material": 0,
          "mode": 4
        }
      ]
    },
    {
      "primitives": [
        {
          "attributes": {
            "NORMAL": 20,
            "POSITION": 19
          },
          "indices": 21,
          "material": 0,
          "mode": 4
        }
      ]
    },
    {
      "primitives": [
        {
          "attributes": {
            "NORMAL": 23,
            "POSITION": 22
          },
          "indices": 24,
          "material": 0,
          "mode": 4
        }
      ]
    },
    {
      "primitives": [
        {
          "attributes": {
            "NORMAL": 26,
            "POSITION": 25
          },
          "indices": 27,
          "material": 0,
          "mode": 4
        }
      ]
    },
    {
      "primitives": [
        {
          "attributes": {
            "NORMAL": 29,
            "POSITION": 28
          },
          "indices": 30,
          "material": 1,
          "mode": 4
        }
      ]
    },
    {
      "primitives": [
        {
          "attributes": {
            "NORMAL": 32,
            "POSITION": 31,
            "TANGENT": 33,
            "TEXCOORD_0": 34
          },
          "indices": 35,
          "material": 2,
          "mode": 4
        }
      ]
    }
  ],
  "nodes": [
    {
      "children": [
        1
      ],
      "name": "RootNode (gltf orientation matrix)",
      "rotation": [
        -0.70710678118654746,
        -0,
        -0,
        0.70710678118654757
      ]
    },
    {
      "children": [
        2
      ],
      "name": "RootNode (model correction matrix)"
    },
    {
      "children": [
        3,
        4,
        5,
        6,
        7,
        8,
        9,
        10,
        11,
        12,
        13
      ],
      "name": "Lamp.obj.cleaner.materialmerger.gles"
    },
    {
      "mesh": 0,
      "name": ""
    },
    {
      "mesh": 1,
      "name": ""
    },
    {
      "mesh": 2,
      "name": ""
    },
    {
      "mesh": 3,
      "name": ""
    },
    {
      "mesh": 4,
      "name": ""
    },
    {
      "mesh": 5,
      "name": ""
    },
    {
      "mesh": 6,
      "name": ""
    },
    {
      "mesh": 7,
      "name": ""
    },
    {
      "mesh": 8,
      "name": ""
    },
    {
      "mesh": 9,
      "name": ""
    },
    {
      "mesh": 10,
      "name": ""
    }
  ],
  "samplers": [
    {
      "magFilter": 9729,
      "minFilter": 9987,
      "wrapS": 10497,
      "wrapT": 10497
    }
  ],
  "scene": 0,
  "scenes": [
    {
      "name": "OSG_Scene",
      "nodes": [
        0
      ]
    }
  ],
  "textures": [
    {
      "sampler": 0,
      "source": 0
    }
  ]
}

